# xmcd
#
# Track frame offsets:
#	150
#	32362
#	47132
#	71324
#	84247
#	114417
#	164304
#	178448
#	186777
#	198010
#	229417
#	249582
#	254377
#
# Disc length: 3572 seconds
# Revision: 0
# Processed by: cddbd v1.5.2PL0 Copyright (c) Steve Scherf et al.
# Submitted via: dBpowerAMP V12.0
#
DISCID=a70df20d
DTITLE=Hale Dwoskin - The Inner Circle Retreat 02 CD 06
DYEAR=2007
DGENRE=Speech
TTITLE0=Identifying with Feelings
TTITLE1=Lesters Life Story and the Sedona Method
TTITLE2=The Mind is Not in Control
TTITLE3=Making Up the Upset
TTITLE4=Awareness
TTITLE5=Wanting to Play a Role - Partnership Release Demonstration
TTITLE6=Guidelines on Working with a Partner
TTITLE7=Sharing - You Are One with Everyone
TTITLE8=Sharing
TTITLE9=Sharing - Find the One Who Thinks They Have a Problem
TTITLE10=Suffering and Experiencing
TTITLE11=Participant Gain
TTITLE12=Participant Gain
EXTD=
EXTT0=
EXTT1=
EXTT2=
EXTT3=
EXTT4=
EXTT5=
EXTT6=
EXTT7=
EXTT8=
EXTT9=
EXTT10=
EXTT11=
EXTT12=
PLAYORDER=
